<svg 
 xmlns="http://www.w3.org/2000/svg"
 xmlns:xlink="http://www.w3.org/1999/xlink"
 width="163px" height="133px">
<path fill-rule="evenodd"  fill-opacity="0.902" fill="rgb(188, 125, 0)"
 d="M162.999,15.313 L147.718,30.626 C147.718,30.626 147.718,29.238 147.718,33.178 C147.718,35.977 147.268,38.650 146.617,41.247 C146.261,62.313 139.565,90.248 112.061,112.297 C57.960,155.668 -0.001,117.402 -0.001,117.402 C45.843,117.402 45.843,102.088 45.843,102.088 C35.655,102.088 15.280,81.671 15.280,81.671 C20.374,86.775 30.562,81.671 30.562,81.671 C5.092,66.357 5.092,51.044 5.092,51.044 C10.186,56.148 20.374,51.044 20.374,51.044 C-5.095,30.626 10.186,5.103 10.186,5.103 C15.280,30.626 81.499,40.835 81.499,40.835 L82.341,40.412 C81.822,38.078 81.499,33.118 81.499,30.626 C81.499,12.302 96.322,-0.001 114.608,-0.001 C124.673,-0.001 133.579,4.595 139.650,11.698 L142.624,10.208 L157.905,-0.001 L147.718,20.417 L162.999,15.313 Z"/>
</svg>